SeanLight.ufo
<glyph name="exclam" format="1">
  <advance width="401"/>
  <unicode hex="0021"/>
  <outline>
    <contour>
      <point x="208" y="229" type="line"/>
      <point x="206" y="722" type="line"/>
      <point x="244" y="722" type="line"/>
      <point x="244" y="229" type="line"/>
    </contour>
    <contour>
      <point x="206" y="129" type="line"/>
      <point x="245" y="129" type="line"/>
      <point x="245" y="0" type="line"/>
      <point x="206" y="0" type="line"/>
    </contour>
  </outline>
</glyph>
<glyph name="quotedbl" format="1">
  <advance width="435"/>
  <unicode hex="0022"/>
  <outline>
    <contour>
      <point x="273" y="658" type="line"/>
      <point x="312" y="846" type="line"/>
      <point x="349" y="846" type="line"/>
      <point x="309" y="658" type="line"/>
    </contour>
    <contour>
      <point x="88" y="658" type="line"/>
      <point x="127" y="846" type="line"/>
      <point x="164" y="846" type="line"/>
      <point x="124" y="658" type="line"/>
    </contour>
  </outline>
</glyph>
<glyph name="quotesingle" format="1">
  <advance width="249"/>
  <unicode hex="0027"/>
  <outline>
    <contour>
      <point x="92" y="658" type="line"/>
      <point x="132" y="846" type="line"/>
      <point x="168" y="846" type="line"/>
      <point x="128" y="658" type="line"/>
    </contour>
  </outline>
</glyph>
<glyph name="parenleft" format="1">
  <advance width="439"/>
  <unicode hex="0028"/>
  <outline>
    <contour>
      <point x="338" y="822" type="curve"/>
      <point x="320" y="835" type="line"/>
      <point x="167" y="702"/>
      <point x="78" y="515"/>
      <point x="78" y="301" type="curve" smooth="yes"/>
      <point x="78" y="97"/>
      <point x="166" y="-98"/>
      <point x="319" y="-233" type="curve"/>
      <point x="334" y="-218" type="line"/>
      <point x="185" y="-87"/>
      <point x="99" y="103"/>
      <point x="99" y="300" type="curve" smooth="yes"/>
      <point x="99" y="511"/>
      <point x="187" y="692"/>
    </contour>
  </outline>
</glyph>
<glyph name="parenright" format="1">
  <advance width="440"/>
  <unicode hex="0029"/>
  <outline>
    <contour>
      <point x="320" y="296" type="curve" smooth="yes"/>
      <point x="320" y="91"/>
      <point x="228" y="-103"/>
      <point x="68" y="-234" type="curve"/>
      <point x="85" y="-247" type="line"/>
      <point x="247" y="-112"/>
      <point x="341" y="86"/>
      <point x="341" y="295" type="curve" smooth="yes"/>
      <point x="341" y="514"/>
      <point x="247" y="703"/>
      <point x="89" y="835" type="curve"/>
      <point x="74" y="819" type="line"/>
      <point x="228" y="692"/>
      <point x="320" y="507"/>
    </contour>
  </outline>
</glyph>
<glyph name="plus" format="1">
  <advance width="750"/>
  <unicode hex="002B"/>
  <outline>
    <contour>
      <point x="83" y="287" type="line"/>
      <point x="368" y="287" type="line"/>
      <point x="367" y="17" type="line"/>
      <point x="389" y="17" type="line"/>
      <point x="390" y="286" type="line"/>
      <point x="664" y="286" type="line"/>
      <point x="664" y="308" type="line"/>
      <point x="390" y="308" type="line"/>
      <point x="390" y="544" type="line"/>
      <point x="368" y="544" type="line"/>
      <point x="368" y="309" type="line"/>
      <point x="83" y="309" type="line"/>
    </contour>
  </outline>
</glyph>
<glyph name="comma" format="1">
  <advance width="314"/>
  <unicode hex="002C"/>
  <outline>
    <contour>
      <point x="62" y="-92" type="line"/>
      <point x="83" y="-92" type="line"/>
      <point x="194" y="85" type="line"/>
      <point x="171" y="85" type="line"/>
    </contour>
  </outline>
</glyph>
<glyph name="hyphen" format="1">
  <advance width="380"/>
  <unicode hex="002D"/>
  <outline>
    <contour>
      <point x="43" y="262" type="line"/>
      <point x="43" y="241" type="line"/>
      <point x="334" y="241" type="line"/>
      <point x="334" y="262" type="line"/>
    </contour>
  </outline>
</glyph>
<glyph name="period" format="1">
  <advance width="317"/>
  <unicode hex="002E"/>
  <outline>
    <contour>
      <point x="146" y="137" type="line"/>
      <point x="146" y="0" type="line"/>
      <point x="168" y="0" type="line"/>
      <point x="168" y="137" type="line"/>
    </contour>
  </outline>
</glyph>
<glyph name="slash" format="1">
  <advance width="563"/>
  <unicode hex="002F"/>
  <outline>
    <contour>
      <point x="94" y="-68" type="line"/>
      <point x="56" y="-68" type="line"/>
      <point x="479" y="844" type="line"/>
      <point x="517" y="844" type="line"/>
    </contour>
  </outline>
</glyph>
<glyph name="zero" format="1">
  <advance width="573"/>
  <unicode hex="0030"/>
  <outline>
    <contour>
      <point x="104" y="268" type="curve" smooth="yes"/>
      <point x="104" y="145"/>
      <point x="176" y="32"/>
      <point x="287" y="32" type="curve" smooth="yes"/>
      <point x="395" y="32"/>
      <point x="471" y="146"/>
      <point x="471" y="273" type="curve" smooth="yes"/>
      <point x="471" y="391"/>
      <point x="402" y="495"/>
      <point x="292" y="498" type="curve"/>
      <point x="289" y="498" type="line" smooth="yes"/>
      <point x="177" y="498"/>
      <point x="104" y="390"/>
    </contour>
    <contour>
      <point x="286" y="-5" type="curve"/>
      <point x="158" y="-4"/>
      <point x="66" y="121"/>
      <point x="66" y="268" type="curve" smooth="yes"/>
      <point x="66" y="409"/>
      <point x="155" y="535"/>
      <point x="287" y="535" type="curve" smooth="yes"/>
      <point x="288" y="535" type="line" smooth="yes"/>
      <point x="420" y="535"/>
      <point x="508" y="410"/>
      <point x="508" y="270" type="curve" smooth="yes"/>
      <point x="508" y="121"/>
      <point x="416" y="-5"/>
    </contour>
  </outline>
</glyph>
<glyph name="one" format="1">
  <advance width="305"/>
  <unicode hex="0031"/>
  <outline>
    <contour>
      <point x="188" y="471" type="line"/>
      <point x="226" y="471" type="line"/>
      <point x="227" y="0" type="line"/>
      <point x="189" y="0" type="line"/>
      <point x="188" y="424" type="line"/>
      <point x="8" y="280" type="line"/>
      <point x="-17" y="307" type="line"/>
    </contour>
  </outline>
</glyph>
<glyph name="two" format="1">
  <advance width="434"/>
  <unicode hex="0032"/>
  <outline>
    <contour>
      <point x="332" y="339" type="curve" smooth="yes"/>
      <point x="332" y="316"/>
      <point x="327" y="292"/>
      <point x="319" y="268" type="curve" smooth="yes"/>
      <point x="273" y="134"/>
      <point x="140" y="51"/>
      <point x="-3" y="51" type="curve"/>
      <point x="-3" y="30" type="line"/>
      <point x="443" y="30" type="line"/>
      <point x="443" y="51" type="line"/>
      <point x="92" y="51" type="line"/>
      <point x="208" y="76"/>
      <point x="305" y="158"/>
      <point x="340" y="274" type="curve" smooth="yes"/>
      <point x="347" y="297"/>
      <point x="351" y="320"/>
      <point x="351" y="342" type="curve" smooth="yes"/>
      <point x="351" y="427"/>
      <point x="292" y="506"/>
      <point x="189" y="506" type="curve" smooth="yes"/>
      <point x="119" y="506"/>
      <point x="59" y="458"/>
      <point x="20" y="387" type="curve"/>
      <point x="37" y="375" type="line"/>
      <point x="73" y="440"/>
      <point x="126" y="484"/>
      <point x="189" y="484" type="curve" smooth="yes"/>
      <point x="280" y="484"/>
      <point x="332" y="414"/>
    </contour>
  </outline>
</glyph>
<glyph name="three" format="1">
  <advance width="478"/>
  <unicode hex="0033"/>
  <outline>
    <contour>
      <point x="351" y="329" type="curve" smooth="yes"/>
      <point x="351" y="220"/>
      <point x="238" y="141"/>
      <point x="113" y="141" type="curve"/>
      <point x="113" y="119" type="line"/>
      <point x="114" y="119" type="line" smooth="yes"/>
      <point x="215" y="119"/>
      <point x="327" y="111"/>
      <point x="369" y="22" type="curve" smooth="yes"/>
      <point x="378" y="3"/>
      <point x="382" y="-16"/>
      <point x="382" y="-35" type="curve" smooth="yes"/>
      <point x="382" y="-135"/>
      <point x="278" y="-218"/>
      <point x="173" y="-218" type="curve" smooth="yes"/>
      <point x="129" y="-218"/>
      <point x="86" y="-205"/>
      <point x="48" y="-179" type="curve"/>
      <point x="39" y="-199" type="line"/>
      <point x="80" y="-226"/>
      <point x="126" y="-239"/>
      <point x="173" y="-239" type="curve" smooth="yes"/>
      <point x="291" y="-239"/>
      <point x="404" y="-145"/>
      <point x="404" y="-35" type="curve" smooth="yes"/>
      <point x="404" y="78"/>
      <point x="305" y="123"/>
      <point x="213" y="135" type="curve"/>
      <point x="304" y="166"/>
      <point x="372" y="239"/>
      <point x="372" y="330" type="curve" smooth="yes"/>
      <point x="372" y="434"/>
      <point x="286" y="509"/>
      <point x="176" y="509" type="curve" smooth="yes"/>
      <point x="114" y="509"/>
      <point x="53" y="482"/>
      <point x="11" y="432" type="curve"/>
      <point x="20" y="417" type="line"/>
      <point x="59" y="463"/>
      <point x="115" y="489"/>
      <point x="173" y="489" type="curve" smooth="yes"/>
      <point x="272" y="489"/>
      <point x="351" y="422"/>
    </contour>
  </outline>
</glyph>
<glyph name="four" format="1">
  <advance width="606"/>
  <unicode hex="0034"/>
  <outline>
    <contour>
      <point x="49" y="99" type="line"/>
      <point x="381" y="99" type="line"/>
      <point x="382" y="477" type="line"/>
    </contour>
    <contour>
      <point x="6" y="99" type="line"/>
      <point x="382" y="527" type="line"/>
      <point x="421" y="527" type="line"/>
      <point x="421" y="384"/>
      <point x="420" y="242"/>
      <point x="420" y="99" type="curve"/>
      <point x="596" y="99" type="line"/>
      <point x="596" y="63" type="line"/>
      <point x="420" y="63" type="line"/>
      <point x="419" y="-222" type="line"/>
      <point x="381" y="-222" type="line"/>
      <point x="381" y="63" type="line"/>
      <point x="6" y="63" type="line"/>
    </contour>
  </outline>
</glyph>
<glyph name="five" format="1">
  <advance width="506"/>
  <unicode hex="0035"/>
  <outline>
    <contour>
      <point x="93" y="-163" type="line"/>
      <point x="141" y="-190"/>
      <point x="187" y="-203"/>
      <point x="230" y="-203" type="curve" smooth="yes"/>
      <point x="340" y="-203"/>
      <point x="424" y="-122"/>
      <point x="424" y="-17" type="curve" smooth="yes"/>
      <point x="424" y="8"/>
      <point x="419" y="35"/>
      <point x="409" y="62" type="curve" smooth="yes"/>
      <point x="376" y="150"/>
      <point x="305" y="183"/>
      <point x="216" y="183" type="curve" smooth="yes"/>
      <point x="191" y="183"/>
      <point x="164" y="180"/>
      <point x="136" y="175" type="curve"/>
      <point x="99" y="175" type="line"/>
      <point x="100" y="534" type="line"/>
      <point x="437" y="534" type="line"/>
      <point x="437" y="497" type="line"/>
      <point x="137" y="497" type="line"/>
      <point x="136" y="211" type="line"/>
      <point x="165" y="216"/>
      <point x="192" y="219"/>
      <point x="219" y="219" type="curve" smooth="yes"/>
      <point x="324" y="219"/>
      <point x="408" y="176"/>
      <point x="445" y="71" type="curve" smooth="yes"/>
      <point x="456" y="40"/>
      <point x="461" y="9"/>
      <point x="461" y="-20" type="curve" smooth="yes"/>
      <point x="461" y="-146"/>
      <point x="363" y="-240"/>
      <point x="234" y="-240" type="curve" smooth="yes"/>
      <point x="184" y="-240"/>
      <point x="130" y="-226"/>
      <point x="75" y="-195" type="curve"/>
    </contour>
  </outline>
</glyph>
<glyph name="six" format="1">
  <advance width="585"/>
  <unicode hex="0036"/>
  <outline>
    <contour>
      <point x="308" y="-7" type="curve" smooth="yes"/>
      <point x="411" y="-7"/>
      <point x="497" y="69"/>
      <point x="497" y="164" type="curve" smooth="yes"/>
      <point x="497" y="270"/>
      <point x="403" y="334"/>
      <point x="293" y="334" type="curve" smooth="yes"/>
      <point x="219" y="334"/>
      <point x="148" y="301"/>
      <point x="99" y="243" type="curve"/>
      <point x="98" y="346"/>
      <point x="155" y="441"/>
      <point x="230" y="515" type="curve" smooth="yes"/>
      <point x="312" y="596"/>
      <point x="413" y="656"/>
      <point x="524" y="687" type="curve"/>
      <point x="516" y="707" type="line"/>
      <point x="400" y="673"/>
      <point x="294" y="609"/>
      <point x="209" y="522" type="curve" smooth="yes"/>
      <point x="134" y="446"/>
      <point x="77" y="350"/>
      <point x="77" y="246" type="curve" smooth="yes"/>
      <point x="77" y="109"/>
      <point x="172" y="-7"/>
    </contour>
    <contour>
      <point x="478" y="162" type="curve" smooth="yes"/>
      <point x="478" y="78"/>
      <point x="402" y="12"/>
      <point x="311" y="12" type="curve" smooth="yes"/>
      <point x="198" y="12"/>
      <point x="114" y="105"/>
      <point x="101" y="214" type="curve"/>
      <point x="146" y="277"/>
      <point x="218" y="314"/>
      <point x="294" y="314" type="curve" smooth="yes"/>
      <point x="393" y="314"/>
      <point x="478" y="255"/>
    </contour>
  </outline>
</glyph>
<glyph name="seven" format="1">
  <advance width="561"/>
  <unicode hex="0037"/>
  <outline>
    <contour>
      <point x="61" y="474" type="line"/>
      <point x="61" y="453" type="line"/>
      <point x="501" y="452" type="line"/>
      <point x="103" y="-222" type="line"/>
      <point x="125" y="-222" type="line"/>
      <point x="526" y="452" type="line"/>
      <point x="526" y="474" type="line"/>
    </contour>
  </outline>
</glyph>
<glyph name="nine" format="1">
  <advance width="592"/>
  <unicode hex="0039"/>
  <outline>
    <contour>
      <point x="286" y="481" type="curve" smooth="yes"/>
      <point x="423" y="481"/>
      <point x="510" y="362"/>
      <point x="510" y="234" type="curve" smooth="yes"/>
      <point x="510" y="128"/>
      <point x="452" y="32"/>
      <point x="375" y="-44" type="curve" smooth="yes"/>
      <point x="298" y="-120"/>
      <point x="203" y="-176"/>
      <point x="99" y="-208" type="curve"/>
      <point x="85" y="-173" type="line"/>
      <point x="187" y="-142"/>
      <point x="279" y="-87"/>
      <point x="354" y="-12" type="curve" smooth="yes"/>
      <point x="411" y="44"/>
      <point x="456" y="112"/>
      <point x="469" y="187" type="curve"/>
      <point x="425" y="135"/>
      <point x="359" y="105"/>
      <point x="291" y="105" type="curve" smooth="yes"/>
      <point x="177" y="105"/>
      <point x="87" y="178"/>
      <point x="87" y="291" type="curve" smooth="yes"/>
      <point x="87" y="396"/>
      <point x="177" y="481"/>
    </contour>
    <contour>
      <point x="127" y="293" type="curve" smooth="yes"/>
      <point x="127" y="203"/>
      <point x="205" y="142"/>
      <point x="300" y="142" type="curve" smooth="yes"/>
      <point x="371" y="142"/>
      <point x="436" y="179"/>
      <point x="472" y="240" type="curve"/>
      <point x="467" y="349"/>
      <point x="389" y="441"/>
      <point x="285" y="441" type="curve" smooth="yes"/>
      <point x="283" y="441" type="line" smooth="yes"/>
      <point x="198" y="441"/>
      <point x="127" y="374"/>
    </contour>
  </outline>
</glyph>
<glyph name="colon" format="1">
  <advance width="348"/>
  <unicode hex="003A"/>
  <outline>
    <contour>
      <point x="158" y="147" type="line"/>
      <point x="196" y="147" type="line"/>
      <point x="196" y="0" type="line"/>
      <point x="158" y="0" type="line"/>
    </contour>
    <contour>
      <point x="158" y="487" type="line"/>
      <point x="196" y="487" type="line"/>
      <point x="196" y="341" type="line"/>
      <point x="158" y="341" type="line"/>
    </contour>
  </outline>
</glyph>
<glyph name="semicolon" format="1">
  <advance width="314"/>
  <unicode hex="003B"/>
  <outline>
    <contour>
      <point x="165" y="315" type="line"/>
      <point x="187" y="315" type="line"/>
      <point x="187" y="449" type="line"/>
      <point x="165" y="449" type="line"/>
    </contour>
    <contour>
      <point x="62" y="-88" type="line"/>
      <point x="83" y="-88" type="line"/>
      <point x="194" y="85" type="line"/>
      <point x="172" y="85" type="line"/>
    </contour>
  </outline>
</glyph>
<glyph name="less" format="1">
  <advance width="811"/>
  <unicode hex="003C"/>
  <outline>
    <contour>
      <point x="119" y="277" type="line"/>
      <point x="701" y="516" type="line"/>
      <point x="701" y="538" type="line"/>
      <point x="92" y="288" type="line"/>
      <point x="92" y="266" type="line"/>
      <point x="711" y="23" type="line"/>
      <point x="711" y="45" type="line"/>
    </contour>
  </outline>
</glyph>
<glyph name="equal" format="1">
  <advance width="833"/>
  <unicode hex="003D"/>
  <outline>
    <contour>
      <point x="95" y="212" type="line"/>
      <point x="95" y="190" type="line"/>
      <point x="724" y="190" type="line"/>
      <point x="724" y="212" type="line"/>
    </contour>
    <contour>
      <point x="95" y="417" type="line"/>
      <point x="95" y="396" type="line"/>
      <point x="724" y="396" type="line"/>
      <point x="724" y="417" type="line"/>
    </contour>
  </outline>
</glyph>
<glyph name="greater" format="1">
  <advance width="813"/>
  <unicode hex="003E"/>
  <outline>
    <contour>
      <point x="114" y="17" type="line"/>
      <point x="114" y="55" type="line"/>
      <point x="676" y="301" type="line"/>
      <point x="100" y="551" type="line"/>
      <point x="100" y="589" type="line"/>
      <point x="720" y="320" type="line"/>
      <point x="720" y="282" type="line"/>
    </contour>
  </outline>
</glyph>
<glyph name="question" format="1">
  <advance width="546"/>
  <unicode hex="003F"/>
  <outline>
    <contour>
      <point x="238" y="343" type="line"/>
      <point x="339" y="343"/>
      <point x="431" y="411"/>
      <point x="431" y="517" type="curve" smooth="yes"/>
      <point x="431" y="609"/>
      <point x="353" y="680"/>
      <point x="266" y="680" type="curve" smooth="yes"/>
      <point x="245" y="680"/>
      <point x="223" y="676"/>
      <point x="202" y="667" type="curve"/>
      <point x="190" y="701" type="line"/>
      <point x="214" y="710"/>
      <point x="239" y="714"/>
      <point x="263" y="714" type="curve" smooth="yes"/>
      <point x="372" y="714"/>
      <point x="465" y="625"/>
      <point x="465" y="513" type="curve" smooth="yes"/>
      <point x="465" y="396"/>
      <point x="376" y="325"/>
      <point x="276" y="310" type="curve"/>
      <point x="275" y="226" type="line"/>
      <point x="237" y="226" type="line"/>
      <point x="238" y="318" type="line"/>
    </contour>
    <contour>
      <point x="275" y="-10" type="line"/>
      <point x="235" y="-10" type="line"/>
      <point x="235" y="125" type="line"/>
      <point x="275" y="125" type="line"/>
    </contour>
  </outline>
</glyph>
<glyph name="at" format="1">
  <advance width="849"/>
  <unicode hex="0040"/>
  <outline>
    <contour>
      <point x="758" y="246" type="curve" smooth="yes"/>
      <point x="758" y="140"/>
      <point x="691" y="65"/>
      <point x="627" y="65" type="curve" smooth="yes"/>
      <point x="580" y="65"/>
      <point x="547" y="104"/>
      <point x="547" y="150" type="curve" smooth="yes"/>
      <point x="547" y="153"/>
      <point x="548" y="155"/>
      <point x="549" y="157" type="curve"/>
      <point x="548" y="158" type="line"/>
      <point x="551" y="200"/>
      <point x="573" y="240"/>
      <point x="573" y="281" type="curve" smooth="yes"/>
      <point x="573" y="351"/>
      <point x="507" y="388"/>
      <point x="439" y="388" type="curve" smooth="yes"/>
      <point x="338" y="388"/>
      <point x="254" y="309"/>
      <point x="254" y="212" type="curve" smooth="yes"/>
      <point x="254" y="125"/>
      <point x="318" y="61"/>
      <point x="405" y="61" type="curve" smooth="yes"/>
      <point x="453" y="61"/>
      <point x="500" y="84"/>
      <point x="529" y="122" type="curve"/>
      <point x="538" y="81"/>
      <point x="576" y="46"/>
      <point x="625" y="46" type="curve" smooth="yes"/>
      <point x="702" y="46"/>
      <point x="779" y="132"/>
      <point x="779" y="248" type="curve" smooth="yes"/>
      <point x="779" y="421"/>
      <point x="622" y="552"/>
      <point x="435" y="552" type="curve" smooth="yes"/>
      <point x="236" y="552"/>
      <point x="67" y="404"/>
      <point x="67" y="209" type="curve" smooth="yes"/>
      <point x="67" y="14"/>
      <point x="237" y="-135"/>
      <point x="438" y="-135" type="curve" smooth="yes"/>
      <point x="535" y="-135"/>
      <point x="628" y="-100"/>
      <point x="701" y="-36" type="curve"/>
      <point x="687" y="-20" type="line"/>
      <point x="620" y="-80"/>
      <point x="533" y="-114"/>
      <point x="443" y="-114" type="curve" smooth="yes"/>
      <point x="439" y="-114" type="line" smooth="yes"/>
      <point x="250" y="-114"/>
      <point x="88" y="26"/>
      <point x="88" y="210" type="curve" smooth="yes"/>
      <point x="88" y="393"/>
      <point x="247" y="532"/>
      <point x="435" y="532" type="curve" smooth="yes"/>
      <point x="610" y="532"/>
      <point x="758" y="410"/>
    </contour>
    <contour>
      <point x="276" y="213" type="curve" smooth="yes"/>
      <point x="276" y="299"/>
      <point x="349" y="369"/>
      <point x="439" y="369" type="curve" smooth="yes"/>
      <point x="496" y="369"/>
      <point x="553" y="339"/>
      <point x="553" y="277" type="curve" smooth="yes"/>
      <point x="553" y="237"/>
      <point x="529" y="199"/>
      <point x="526" y="157" type="curve"/>
      <point x="506" y="109"/>
      <point x="460" y="78"/>
      <point x="408" y="78" type="curve" smooth="yes"/>
      <point x="332" y="78"/>
      <point x="276" y="135"/>
    </contour>
  </outline>
</glyph>
<glyph name="A" format="1">
  <advance width="753"/>
  <unicode hex="0041"/>
  <outline>
    <contour>
      <point x="71" y="0" type="line"/>
      <point x="93" y="0" type="line"/>
      <point x="215" y="275" type="line"/>
      <point x="551" y="275" type="line"/>
      <point x="642" y="1" type="line"/>
      <point x="664" y="1" type="line"/>
      <point x="424" y="721" type="line"/>
      <point x="392" y="721" type="line"/>
    </contour>
    <contour>
      <point x="544" y="296" type="line"/>
      <point x="224" y="296" type="line"/>
      <point x="407" y="707" type="line"/>
    </contour>
  </outline>
</glyph>
<glyph name="B" format="1">
  <advance width="582"/>
  <unicode hex="0042"/>
  <outline>
    <contour>
      <point x="331" y="403" type="curve"/>
      <point x="403" y="425"/>
      <point x="452" y="478"/>
      <point x="452" y="556" type="curve" smooth="yes"/>
      <point x="452" y="665"/>
      <point x="363" y="722"/>
      <point x="247" y="722" type="curve" smooth="yes"/>
      <point x="105" y="722" type="line"/>
      <point x="105" y="0" type="line"/>
      <point x="251" y="0" type="line" smooth="yes"/>
      <point x="389" y="0"/>
      <point x="495" y="76"/>
      <point x="495" y="204" type="curve" smooth="yes"/>
      <point x="495" y="312"/>
      <point x="427" y="379"/>
    </contour>
    <contour>
      <point x="249" y="413" type="curve" smooth="yes"/>
      <point x="127" y="413" type="line"/>
      <point x="127" y="701" type="line"/>
      <point x="247" y="701" type="line" smooth="yes"/>
      <point x="349" y="701"/>
      <point x="431" y="651"/>
      <point x="431" y="556" type="curve"/>
      <point x="430" y="462"/>
      <point x="349" y="413"/>
    </contour>
    <contour>
      <point x="473" y="205" type="curve" smooth="yes"/>
      <point x="473" y="89"/>
      <point x="376" y="21"/>
      <point x="251" y="21" type="curve" smooth="yes"/>
      <point x="127" y="21" type="line"/>
      <point x="127" y="392" type="line"/>
      <point x="249" y="392" type="line" smooth="yes"/>
      <point x="374" y="392"/>
      <point x="473" y="327"/>
    </contour>
  </outline>
</glyph>
<glyph name="C" format="1">
  <advance width="680"/>
  <unicode hex="0043"/>
  <outline>
    <contour>
      <point x="399" y="28" type="curve" smooth="yes"/>
      <point x="500" y="28"/>
      <point x="574" y="63"/>
      <point x="637" y="120" type="curve"/>
      <point x="660" y="91" type="line"/>
      <point x="588" y="28"/>
      <point x="504" y="-8"/>
      <point x="395" y="-8" type="curve" smooth="yes"/>
      <point x="203" y="-8"/>
      <point x="88" y="134"/>
      <point x="88" y="346" type="curve" smooth="yes"/>
      <point x="88" y="578"/>
      <point x="207" y="731"/>
      <point x="412" y="731" type="curve" smooth="yes"/>
      <point x="512" y="731"/>
      <point x="588" y="703"/>
      <point x="659" y="654" type="curve"/>
      <point x="638" y="623" type="line"/>
      <point x="574" y="669"/>
      <point x="503" y="694"/>
      <point x="416" y="694" type="curve" smooth="yes"/>
      <point x="232" y="694"/>
      <point x="125" y="558"/>
      <point x="125" y="349" type="curve" smooth="yes"/>
      <point x="125" y="157"/>
      <point x="229" y="28"/>
    </contour>
  </outline>
</glyph>
<glyph name="D" format="1">
  <advance width="698"/>
  <unicode hex="0044"/>
  <outline>
    <contour>
      <point x="277" y="722" type="curve" smooth="yes"/>
      <point x="91" y="722" type="line"/>
      <point x="91" y="0" type="line"/>
      <point x="113" y="0" type="line" smooth="yes"/>
      <point x="176" y="0"/>
      <point x="241" y="1"/>
      <point x="304" y="1" type="curve" smooth="yes"/>
      <point x="513" y="1"/>
      <point x="619" y="129"/>
      <point x="619" y="337" type="curve" smooth="yes"/>
      <point x="619" y="583"/>
      <point x="505" y="722"/>
    </contour>
    <contour>
      <point x="597" y="344" type="curve" smooth="yes"/>
      <point x="597" y="143"/>
      <point x="495" y="21"/>
      <point x="296" y="21" type="curve" smooth="yes"/>
      <point x="113" y="21" type="line"/>
      <point x="113" y="701" type="line"/>
      <point x="280" y="701" type="line" smooth="yes"/>
      <point x="494" y="701"/>
      <point x="597" y="571"/>
    </contour>
  </outline>
</glyph>
<glyph name="E" format="1">
  <advance width="608"/>
  <unicode hex="0045"/>
  <outline>
    <contour>
      <point x="116" y="0" type="line"/>
      <point x="116" y="722" type="line"/>
      <point x="527" y="722" type="line"/>
      <point x="527" y="685" type="line"/>
      <point x="154" y="685" type="line"/>
      <point x="154" y="392" type="line"/>
      <point x="447" y="392" type="line"/>
      <point x="447" y="355" type="line"/>
      <point x="154" y="355" type="line"/>
      <point x="154" y="38" type="line"/>
      <point x="561" y="38" type="line"/>
      <point x="561" y="0" type="line"/>
    </contour>
  </outline>
</glyph>
<glyph name="F" format="1">
  <advance width="571"/>
  <unicode hex="0046"/>
  <outline>
    <contour>
      <point x="116" y="0" type="line"/>
      <point x="116" y="722" type="line"/>
      <point x="531" y="722" type="line"/>
      <point x="531" y="685" type="line"/>
      <point x="154" y="685" type="line"/>
      <point x="154" y="392" type="line"/>
      <point x="461" y="392" type="line"/>
      <point x="461" y="355" type="line"/>
      <point x="154" y="355" type="line"/>
      <point x="154" y="0" type="line"/>
    </contour>
  </outline>
</glyph>
<glyph name="G" format="1">
  <advance width="777"/>
  <unicode hex="0047"/>
  <outline>
    <contour>
      <point x="435" y="29" type="curve" smooth="yes"/>
      <point x="524" y="29"/>
      <point x="602" y="50"/>
      <point x="675" y="87" type="curve"/>
      <point x="675" y="289" type="line"/>
      <point x="483" y="289" type="line"/>
      <point x="483" y="326" type="line"/>
      <point x="712" y="326" type="line"/>
      <point x="712" y="73" type="line"/>
      <point x="626" y="22"/>
      <point x="532" y="-6"/>
      <point x="426" y="-6" type="curve" smooth="yes"/>
      <point x="206" y="-6"/>
      <point x="86" y="128"/>
      <point x="86" y="361" type="curve" smooth="yes"/>
      <point x="86" y="589"/>
      <point x="209" y="730"/>
      <point x="420" y="730" type="curve" smooth="yes"/>
      <point x="529" y="730"/>
      <point x="614" y="701"/>
      <point x="696" y="652" type="curve"/>
      <point x="678" y="619" type="line"/>
      <point x="603" y="666"/>
      <point x="523" y="692"/>
      <point x="424" y="692" type="curve" smooth="yes"/>
      <point x="234" y="692"/>
      <point x="124" y="568"/>
      <point x="124" y="364" type="curve" smooth="yes"/>
      <point x="124" y="152"/>
      <point x="235" y="29"/>
    </contour>
  </outline>
</glyph>
<glyph name="H" format="1">
  <advance width="775"/>
  <unicode hex="0048"/>
  <outline>
    <contour>
      <point x="644" y="722" type="line"/>
      <point x="644" y="373" type="line"/>
      <point x="128" y="373" type="line"/>
      <point x="128" y="722" type="line"/>
      <point x="106" y="722" type="line"/>
      <point x="105" y="0" type="line"/>
      <point x="127" y="0" type="line"/>
      <point x="127" y="351" type="line"/>
      <point x="644" y="351" type="line"/>
      <point x="644" y="0" type="line"/>
      <point x="666" y="0" type="line"/>
      <point x="666" y="722" type="line"/>
    </contour>
  </outline>
</glyph>
<glyph name="I" format="1">
  <advance width="236"/>
  <unicode hex="0049"/>
  <outline>
    <contour>
      <point x="105" y="0" type="line"/>
      <point x="127" y="0" type="line"/>
      <point x="128" y="722" type="line"/>
      <point x="106" y="722" type="line"/>
    </contour>
  </outline>
</glyph>
<glyph name="J" format="1">
  <advance width="303"/>
  <unicode hex="004A"/>
  <outline>
    <contour>
      <point x="200" y="0" type="line" smooth="yes"/>
      <point x="200" y="-105"/>
      <point x="144" y="-220"/>
      <point x="32" y="-220" type="curve" smooth="yes"/>
      <point x="-6" y="-220"/>
      <point x="-42" y="-204"/>
      <point x="-68" y="-176" type="curve"/>
      <point x="-49" y="-145" type="line"/>
      <point x="-29" y="-171"/>
      <point x="2" y="-186"/>
      <point x="33" y="-186" type="curve" smooth="yes"/>
      <point x="128" y="-186"/>
      <point x="162" y="-84"/>
      <point x="162" y="0" type="curve" smooth="yes"/>
      <point x="162" y="722" type="line"/>
      <point x="201" y="722" type="line"/>
    </contour>
  </outline>
</glyph>
<glyph name="K" format="1">
  <advance width="661"/>
  <unicode hex="004B"/>
  <outline>
    <contour>
      <point x="101" y="0" type="line"/>
      <point x="101" y="722" type="line"/>
      <point x="139" y="722" type="line"/>
      <point x="139" y="409" type="line"/>
      <point x="525" y="722" type="line"/>
      <point x="569" y="722" type="line"/>
      <point x="163" y="386" type="line"/>
      <point x="594" y="0" type="line"/>
      <point x="550" y="0" type="line"/>
      <point x="139" y="361" type="line"/>
      <point x="139" y="0" type="line"/>
    </contour>
  </outline>
</glyph>
<glyph name="L" format="1">
  <advance width="563"/>
  <unicode hex="004C"/>
  <outline>
    <contour>
      <point x="101" y="0" type="line"/>
      <point x="101" y="722" type="line"/>
      <point x="139" y="722" type="line"/>
      <point x="139" y="38" type="line"/>
      <point x="537" y="38" type="line"/>
      <point x="537" y="0" type="line"/>
    </contour>
  </outline>
</glyph>
<glyph name="M" format="1">
  <advance width="876"/>
  <unicode hex="004D"/>
  <outline>
    <contour>
      <point x="698" y="677" type="line"/>
      <point x="760" y="0" type="line"/>
      <point x="782" y="0" type="line"/>
      <point x="716" y="722" type="line"/>
      <point x="694" y="722" type="line"/>
      <point x="409" y="23" type="line"/>
      <point x="148" y="722" type="line"/>
      <point x="126" y="722" type="line"/>
      <point x="71" y="0" type="line"/>
      <point x="93" y="0" type="line"/>
      <point x="144" y="676" type="line"/>
      <point x="400" y="0" type="line"/>
      <point x="422" y="0" type="line"/>
    </contour>
  </outline>
</glyph>
<glyph name="N" format="1">
  <advance width="765"/>
  <unicode hex="004E"/>
  <outline>
    <contour>
      <point x="105" y="0" type="line"/>
      <point x="127" y="0" type="line"/>
      <point x="127" y="691" type="line"/>
      <point x="645" y="0" type="line"/>
      <point x="667" y="0" type="line"/>
      <point x="667" y="722" type="line"/>
      <point x="645" y="722" type="line"/>
      <point x="645" y="31" type="line"/>
      <point x="127" y="722" type="line"/>
      <point x="105" y="722" type="line"/>
    </contour>
  </outline>
</glyph>
<glyph name="O" format="1">
  <advance width="758"/>
  <unicode hex="004F"/>
  <outline>
    <contour>
      <point x="377" y="692" type="line"/>
      <point x="205" y="690"/>
      <point x="111" y="545"/>
      <point x="111" y="357" type="curve" smooth="yes"/>
      <point x="111" y="173"/>
      <point x="210" y="31"/>
      <point x="378" y="31" type="curve" smooth="yes"/>
      <point x="556" y="31"/>
      <point x="648" y="175"/>
      <point x="648" y="361" type="curve" smooth="yes"/>
      <point x="648" y="546"/>
      <point x="552" y="692"/>
      <point x="379" y="692" type="curve" smooth="yes"/>
    </contour>
    <contour>
      <point x="74" y="358" type="curve" smooth="yes"/>
      <point x="74" y="568"/>
      <point x="187" y="728"/>
      <point x="380" y="728" type="curve" smooth="yes"/>
      <point x="578" y="728"/>
      <point x="685" y="566"/>
      <point x="685" y="361" type="curve" smooth="yes"/>
      <point x="685" y="156"/>
      <point x="576" y="-4"/>
      <point x="383" y="-6" type="curve"/>
      <point x="379" y="-6" type="line" smooth="yes"/>
      <point x="186" y="-6"/>
      <point x="74" y="153"/>
    </contour>
  </outline>
</glyph>
<glyph name="P" format="1">
  <advance width="553"/>
  <unicode hex="0050"/>
  <outline>
    <contour>
      <point x="274" y="276" type="curve" smooth="yes"/>
      <point x="225" y="276"/>
      <point x="181" y="287"/>
      <point x="139" y="309" type="curve"/>
      <point x="139" y="0" type="line"/>
      <point x="101" y="0" type="line"/>
      <point x="101" y="722" type="line"/>
      <point x="248" y="722" type="line" smooth="yes"/>
      <point x="390" y="722"/>
      <point x="499" y="641"/>
      <point x="499" y="488" type="curve" smooth="yes"/>
      <point x="499" y="365"/>
      <point x="406" y="276"/>
    </contour>
    <contour>
      <point x="461" y="491" type="curve" smooth="yes"/>
      <point x="461" y="618"/>
      <point x="367" y="685"/>
      <point x="248" y="685" type="curve" smooth="yes"/>
      <point x="139" y="685" type="line"/>
      <point x="139" y="350" type="line"/>
      <point x="178" y="327"/>
      <point x="222" y="315"/>
      <point x="267" y="315" type="curve" smooth="yes"/>
      <point x="383" y="315"/>
      <point x="461" y="390"/>
    </contour>
  </outline>
</glyph>
<glyph name="Q" format="1">
  <advance width="766"/>
  <unicode hex="0051"/>
  <outline>
    <contour>
      <point x="396" y="-6" type="curve"/>
      <point x="572" y="2"/>
      <point x="690" y="172"/>
      <point x="690" y="358" type="curve" smooth="yes"/>
      <point x="690" y="554"/>
      <point x="562" y="728"/>
      <point x="380" y="728" type="curve" smooth="yes"/>
      <point x="197" y="728"/>
      <point x="73" y="555"/>
      <point x="73" y="365" type="curve" smooth="yes"/>
      <point x="73" y="172"/>
      <point x="199" y="1"/>
      <point x="374" y="-6" type="curve"/>
      <point x="453" y="-129"/>
      <point x="601" y="-234"/>
      <point x="784" y="-240" type="curve"/>
      <point x="784" y="-219" type="line"/>
      <point x="611" y="-213"/>
      <point x="473" y="-119"/>
    </contour>
    <contour>
      <point x="378" y="707" type="curve" smooth="yes"/>
      <point x="547" y="707"/>
      <point x="669" y="542"/>
      <point x="669" y="358" type="curve" smooth="yes"/>
      <point x="669" y="183"/>
      <point x="562" y="14"/>
      <point x="386" y="14" type="curve" smooth="yes"/>
      <point x="217" y="14"/>
      <point x="95" y="180"/>
      <point x="94" y="364" type="curve" smooth="yes"/>
      <point x="94" y="542"/>
      <point x="205" y="707"/>
    </contour>
  </outline>
</glyph>
<glyph name="R" format="1">
  <advance width="676"/>
  <unicode hex="0052"/>
  <outline>
    <contour>
      <point x="285" y="722" type="line" smooth="yes"/>
      <point x="421" y="722"/>
      <point x="533" y="661"/>
      <point x="533" y="531" type="curve" smooth="yes"/>
      <point x="533" y="435"/>
      <point x="468" y="373"/>
      <point x="375" y="347" type="curve"/>
      <point x="677" y="0" type="line"/>
      <point x="633" y="0" type="line"/>
      <point x="336" y="338" type="line"/>
      <point x="312" y="334"/>
      <point x="286" y="332"/>
      <point x="259" y="332" type="curve" smooth="yes"/>
      <point x="157" y="332" type="line"/>
      <point x="157" y="0" type="line"/>
      <point x="119" y="0" type="line"/>
      <point x="119" y="722" type="line"/>
    </contour>
    <contour>
      <point x="157" y="368" type="line"/>
      <point x="259" y="368" type="line" smooth="yes"/>
      <point x="387" y="368"/>
      <point x="495" y="416"/>
      <point x="495" y="529" type="curve" smooth="yes"/>
      <point x="495" y="635"/>
      <point x="400" y="685"/>
      <point x="285" y="685" type="curve" smooth="yes"/>
      <point x="157" y="685" type="line"/>
    </contour>
  </outline>
</glyph>
<glyph name="S" format="1">
  <advance width="573"/>
  <unicode hex="0053"/>
  <outline>
    <contour>
      <point x="459" y="641" type="line"/>
      <point x="404" y="672"/>
      <point x="346" y="694"/>
      <point x="275" y="694" type="curve" smooth="yes"/>
      <point x="191" y="694"/>
      <point x="125" y="648"/>
      <point x="125" y="574" type="curve" smooth="yes"/>
      <point x="125" y="482"/>
      <point x="218" y="436"/>
      <point x="296" y="394" type="curve" smooth="yes"/>
      <point x="391" y="344"/>
      <point x="490" y="281"/>
      <point x="490" y="164" type="curve" smooth="yes"/>
      <point x="490" y="58"/>
      <point x="393" y="-6"/>
      <point x="269" y="-6" type="curve" smooth="yes"/>
      <point x="195" y="-6"/>
      <point x="127" y="11"/>
      <point x="62" y="39" type="curve"/>
      <point x="76" y="74" type="line"/>
      <point x="139" y="46"/>
      <point x="205" y="31"/>
      <point x="276" y="31" type="curve" smooth="yes"/>
      <point x="374" y="31"/>
      <point x="452" y="78"/>
      <point x="452" y="166" type="curve" smooth="yes"/>
      <point x="452" y="267"/>
      <point x="354" y="322"/>
      <point x="265" y="369" type="curve" smooth="yes"/>
      <point x="181" y="414"/>
      <point x="87" y="467"/>
      <point x="87" y="576" type="curve" smooth="yes"/>
      <point x="87" y="669"/>
      <point x="169" y="730"/>
      <point x="277" y="730" type="curve" smooth="yes"/>
      <point x="354" y="730"/>
      <point x="415" y="708"/>
      <point x="473" y="675" type="curve"/>
    </contour>
  </outline>
</glyph>
<glyph name="T" format="1">
  <advance width="618"/>
  <unicode hex="0054"/>
  <outline>
    <contour>
      <point x="-10" y="706" type="line"/>
      <point x="272" y="706" type="line"/>
      <point x="272" y="0" type="line"/>
      <point x="294" y="0" type="line"/>
      <point x="294" y="706" type="line"/>
      <point x="621" y="706" type="line"/>
      <point x="621" y="728" type="line"/>
      <point x="-10" y="728" type="line"/>
    </contour>
  </outline>
</glyph>
<glyph name="U" format="1">
  <advance width="703"/>
  <unicode hex="0055"/>
  <outline>
    <contour>
      <point x="92" y="722" type="line"/>
      <point x="130" y="722" type="line"/>
      <point x="130" y="295" type="line" smooth="yes"/>
      <point x="130" y="141"/>
      <point x="218" y="32"/>
      <point x="367" y="32" type="curve" smooth="yes"/>
      <point x="504" y="32"/>
      <point x="588" y="133"/>
      <point x="588" y="275" type="curve" smooth="yes"/>
      <point x="588" y="722" type="line"/>
      <point x="626" y="722" type="line"/>
      <point x="626" y="282" type="line" smooth="yes"/>
      <point x="626" y="114"/>
      <point x="524" y="-6"/>
      <point x="359" y="-6" type="curve" smooth="yes"/>
      <point x="193" y="-6"/>
      <point x="92" y="115"/>
      <point x="92" y="287" type="curve" smooth="yes"/>
    </contour>
  </outline>
</glyph>
<glyph name="V" format="1">
  <advance width="730"/>
  <unicode hex="0056"/>
  <outline>
    <contour>
      <point x="699" y="722" type="line"/>
      <point x="409" y="0" type="line"/>
      <point x="370" y="0" type="line"/>
      <point x="78" y="722" type="line"/>
      <point x="117" y="722" type="line"/>
      <point x="391" y="51" type="line"/>
      <point x="660" y="722" type="line"/>
    </contour>
  </outline>
</glyph>
<glyph name="W" format="1">
  <advance width="967"/>
  <unicode hex="0057"/>
  <outline>
    <contour>
      <point x="898" y="722" type="line"/>
      <point x="699" y="0" type="line"/>
      <point x="665" y="0" type="line"/>
      <point x="500" y="662" type="line"/>
      <point x="339" y="0" type="line"/>
      <point x="304" y="0" type="line"/>
      <point x="67" y="722" type="line"/>
      <point x="105" y="722" type="line"/>
      <point x="318" y="55" type="line"/>
      <point x="483" y="722" type="line"/>
      <point x="515" y="722" type="line"/>
      <point x="681" y="58" type="line"/>
      <point x="863" y="722" type="line"/>
    </contour>
  </outline>
</glyph>
<glyph name="X" format="1">
  <advance width="688"/>
  <unicode hex="0058"/>
  <outline>
    <contour>
      <point x="92" y="722" type="line"/>
      <point x="131" y="722" type="line"/>
      <point x="345" y="397" type="line"/>
      <point x="596" y="722" type="line"/>
      <point x="635" y="722" type="line"/>
      <point x="366" y="365" type="line"/>
      <point x="607" y="0" type="line"/>
      <point x="568" y="0" type="line"/>
      <point x="345" y="339" type="line"/>
      <point x="89" y="0" type="line"/>
      <point x="50" y="0" type="line"/>
      <point x="326" y="367" type="line"/>
    </contour>
  </outline>
</glyph>
<glyph name="Y" format="1">
  <advance width="619"/>
  <unicode hex="0059"/>
  <outline>
    <contour>
      <point x="548" y="722" type="line"/>
      <point x="587" y="722" type="line"/>
      <point x="336" y="339" type="line"/>
      <point x="336" y="0" type="line"/>
      <point x="298" y="0" type="line"/>
      <point x="298" y="325" type="line"/>
      <point x="58" y="722" type="line"/>
      <point x="97" y="722" type="line"/>
      <point x="312" y="371" type="line"/>
    </contour>
  </outline>
</glyph>
<glyph name="Z" format="1">
  <advance width="664"/>
  <unicode hex="005A"/>
  <outline>
    <contour>
      <point x="95" y="678" type="line"/>
      <point x="584" y="679" type="line"/>
      <point x="28" y="37" type="line"/>
      <point x="28" y="15" type="line"/>
      <point x="632" y="15" type="line"/>
      <point x="632" y="37" type="line"/>
      <point x="51" y="37" type="line"/>
      <point x="607" y="679" type="line"/>
      <point x="607" y="700" type="line"/>
      <point x="95" y="700" type="line"/>
    </contour>
  </outline>
</glyph>
<glyph name="underscore" format="1">
  <advance width="707"/>
  <unicode hex="005F"/>
  <outline>
    <contour>
      <point x="14" y="-188" type="line"/>
      <point x="691" y="-188" type="line"/>
      <point x="691" y="-226" type="line"/>
      <point x="14" y="-226" type="line"/>
    </contour>
  </outline>
</glyph>
<glyph name="grave" format="1">
  <advance width="321"/>
  <unicode hex="0060"/>
  <outline>
    <contour>
      <point x="235" y="607" type="line"/>
      <point x="257" y="607" type="line"/>
      <point x="108" y="782" type="line"/>
      <point x="86" y="782" type="line"/>
    </contour>
  </outline>
</glyph>
<glyph name="a" format="1">
  <advance width="602"/>
  <unicode hex="0061"/>
  <outline>
    <contour>
      <point x="431" y="339" type="line" smooth="yes"/>
      <point x="431" y="441"/>
      <point x="360" y="510"/>
      <point x="243" y="510" type="curve" smooth="yes"/>
      <point x="196" y="510"/>
      <point x="150" y="496"/>
      <point x="114" y="464" type="curve"/>
      <point x="90" y="491" type="line"/>
      <point x="133" y="529"/>
      <point x="188" y="546"/>
      <point x="245" y="546" type="curve" smooth="yes"/>
      <point x="383" y="546"/>
      <point x="469" y="468"/>
      <point x="469" y="348" type="curve" smooth="yes"/>
      <point x="469" y="0" type="line"/>
      <point x="431" y="0" type="line"/>
      <point x="431" y="109" type="line"/>
      <point x="376" y="39"/>
      <point x="304" y="-8"/>
      <point x="221" y="-8" type="curve" smooth="yes"/>
      <point x="120" y="-8"/>
      <point x="57" y="54"/>
      <point x="57" y="145" type="curve" smooth="yes"/>
      <point x="57" y="288"/>
      <point x="198" y="319"/>
      <point x="362" y="319" type="curve" smooth="yes"/>
      <point x="385" y="319"/>
      <point x="408" y="318"/>
      <point x="431" y="317" type="curve"/>
    </contour>
    <contour>
      <point x="95" y="148" type="curve" smooth="yes"/>
      <point x="95" y="75"/>
      <point x="150" y="30"/>
      <point x="228" y="30" type="curve" smooth="yes"/>
      <point x="314" y="30"/>
      <point x="383" y="86"/>
      <point x="431" y="160" type="curve"/>
      <point x="431" y="286" type="line"/>
      <point x="399" y="288"/>
      <point x="368" y="289"/>
      <point x="337" y="289" type="curve" smooth="yes"/>
      <point x="204" y="289"/>
      <point x="95" y="265"/>
    </contour>
  </outline>
</glyph>
<glyph name="b" format="1">
  <advance width="624"/>
  <unicode hex="0062"/>
  <outline>
    <contour>
      <point x="547" y="273" type="curve" smooth="yes"/>
      <point x="547" y="402"/>
      <point x="462" y="499"/>
      <point x="328" y="499" type="curve" smooth="yes"/>
      <point x="243" y="499"/>
      <point x="165" y="458"/>
      <point x="117" y="390" type="curve"/>
      <point x="117" y="822" type="line"/>
      <point x="95" y="822" type="line"/>
      <point x="95" y="0" type="line"/>
      <point x="117" y="0" type="line"/>
      <point x="117" y="94" type="line"/>
      <point x="157" y="32"/>
      <point x="225" y="-5"/>
      <point x="300" y="-5" type="curve" smooth="yes"/>
      <point x="443" y="-5"/>
      <point x="547" y="123"/>
    </contour>
    <contour>
      <point x="328" y="482" type="curve" smooth="yes"/>
      <point x="447" y="482"/>
      <point x="526" y="393"/>
      <point x="526" y="271" type="curve" smooth="yes"/>
      <point x="526" y="134"/>
      <point x="435" y="12"/>
      <point x="301" y="12" type="curve" smooth="yes"/>
      <point x="219" y="12"/>
      <point x="146" y="62"/>
      <point x="117" y="139" type="curve"/>
      <point x="117" y="349" type="line"/>
      <point x="157" y="428"/>
      <point x="235" y="482"/>
    </contour>
  </outline>
</glyph>
<glyph name="c" format="1">
  <advance width="468"/>
  <unicode hex="0063"/>
  <outline>
    <contour>
      <point x="104" y="266" type="curve" smooth="yes"/>
      <point x="104" y="137"/>
      <point x="168" y="30"/>
      <point x="300" y="30" type="curve" smooth="yes"/>
      <point x="354" y="30"/>
      <point x="404" y="54"/>
      <point x="439" y="97" type="curve"/>
      <point x="464" y="72" type="line"/>
      <point x="421" y="20"/>
      <point x="361" y="-8"/>
      <point x="295" y="-8" type="curve" smooth="yes"/>
      <point x="140" y="-8"/>
      <point x="66" y="117"/>
      <point x="66" y="267" type="curve" smooth="yes"/>
      <point x="66" y="419"/>
      <point x="150" y="540"/>
      <point x="305" y="540" type="curve" smooth="yes"/>
      <point x="359" y="540"/>
      <point x="409" y="521"/>
      <point x="450" y="484" type="curve"/>
      <point x="430" y="454" type="line"/>
      <point x="395" y="487"/>
      <point x="351" y="504"/>
      <point x="305" y="504" type="curve" smooth="yes"/>
      <point x="167" y="504"/>
      <point x="104" y="394"/>
    </contour>
  </outline>
</glyph>
<glyph name="d" format="1">
  <advance width="624"/>
  <unicode hex="0064"/>
  <outline>
    <contour>
      <point x="320" y="503" type="curve" smooth="yes"/>
      <point x="184" y="503"/>
      <point x="111" y="398"/>
      <point x="111" y="263" type="curve" smooth="yes"/>
      <point x="111" y="127"/>
      <point x="189" y="24"/>
      <point x="317" y="24" type="curve" smooth="yes"/>
      <point x="405" y="24"/>
      <point x="469" y="75"/>
      <point x="490" y="150" type="curve"/>
      <point x="490" y="230"/>
      <point x="491" y="309"/>
      <point x="491" y="389" type="curve" smooth="yes"/>
      <point x="491" y="408" type="line"/>
      <point x="455" y="468"/>
      <point x="391" y="503"/>
    </contour>
    <contour>
      <point x="307" y="538" type="curve" smooth="yes"/>
      <point x="389" y="538"/>
      <point x="451" y="503"/>
      <point x="491" y="448" type="curve"/>
      <point x="491" y="560"/>
      <point x="490" y="672"/>
      <point x="489" y="783" type="curve"/>
      <point x="527" y="783" type="line"/>
      <point x="528" y="652"/>
      <point x="529" y="521"/>
      <point x="529" y="389" type="curve" smooth="yes"/>
      <point x="529" y="296"/>
      <point x="528" y="202"/>
      <point x="528" y="109" type="curve" smooth="yes"/>
      <point x="528" y="0" type="line"/>
      <point x="490" y="0" type="line"/>
      <point x="490" y="91" type="line"/>
      <point x="454" y="31"/>
      <point x="388" y="-6"/>
      <point x="309" y="-6" type="curve" smooth="yes"/>
      <point x="160" y="-6"/>
      <point x="73" y="111"/>
      <point x="73" y="265" type="curve" smooth="yes"/>
      <point x="73" y="421"/>
      <point x="166" y="538"/>
    </contour>
  </outline>
</glyph>
<glyph name="e" format="1">
  <advance width="558"/>
  <unicode hex="0065"/>
  <outline>
    <contour>
      <point x="102" y="266" type="line"/>
      <point x="109" y="131"/>
      <point x="182" y="30"/>
      <point x="311" y="30" type="curve" smooth="yes"/>
      <point x="365" y="30"/>
      <point x="417" y="52"/>
      <point x="456" y="89" type="curve"/>
      <point x="480" y="62" type="line"/>
      <point x="432" y="18"/>
      <point x="370" y="-7"/>
      <point x="305" y="-7" type="curve" smooth="yes"/>
      <point x="146" y="-7"/>
      <point x="64" y="119"/>
      <point x="64" y="279" type="curve" smooth="yes"/>
      <point x="64" y="428"/>
      <point x="149" y="541"/>
      <point x="280" y="541" type="curve" smooth="yes"/>
      <point x="414" y="541"/>
      <point x="483" y="442"/>
      <point x="483" y="307" type="curve" smooth="yes"/>
      <point x="483" y="293"/>
      <point x="483" y="280"/>
      <point x="481" y="266" type="curve"/>
    </contour>
    <contour>
      <point x="446" y="302" type="line" smooth="yes"/>
      <point x="446" y="417"/>
      <point x="390" y="503"/>
      <point x="281" y="503" type="curve" smooth="yes"/>
      <point x="173" y="503"/>
      <point x="107" y="416"/>
      <point x="102" y="299" type="curve"/>
      <point x="446" y="299" type="line"/>
    </contour>
  </outline>
</glyph>
<glyph name="f" format="1">
  <advance width="460"/>
  <unicode hex="0066"/>
  <outline>
    <contour>
      <point x="225" y="470" type="line"/>
      <point x="225" y="664" type="line" smooth="yes"/>
      <point x="225" y="750"/>
      <point x="296" y="810"/>
      <point x="371" y="810" type="curve" smooth="yes"/>
      <point x="400" y="810"/>
      <point x="429" y="801"/>
      <point x="456" y="782" type="curve"/>
      <point x="464" y="801" type="line"/>
      <point x="434" y="822"/>
      <point x="402" y="831"/>
      <point x="370" y="831" type="curve" smooth="yes"/>
      <point x="284" y="831"/>
      <point x="203" y="762"/>
      <point x="203" y="664" type="curve" smooth="yes"/>
      <point x="203" y="470" type="line"/>
      <point x="29" y="470" type="line"/>
      <point x="29" y="449" type="line"/>
      <point x="203" y="449" type="line"/>
      <point x="203" y="0" type="line"/>
      <point x="225" y="0" type="line"/>
      <point x="225" y="449" type="line"/>
      <point x="450" y="449" type="line"/>
      <point x="450" y="470" type="line"/>
    </contour>
  </outline>
</glyph>
<glyph name="g" format="1">
  <advance width="583"/>
  <unicode hex="0067"/>
  <outline>
    <contour>
      <point x="490" y="-110" type="curve" smooth="yes"/>
      <point x="490" y="-205"/>
      <point x="369" y="-265"/>
      <point x="246" y="-265" type="curve" smooth="yes"/>
      <point x="143" y="-265"/>
      <point x="65" y="-222"/>
      <point x="65" y="-129" type="curve" smooth="yes"/>
      <point x="65" y="-62"/>
      <point x="104" y="-8"/>
      <point x="161" y="13" type="curve"/>
      <point x="171" y="12"/>
      <point x="180" y="11"/>
      <point x="191" y="11" type="curve" smooth="yes"/>
      <point x="231" y="11"/>
      <point x="278" y="17"/>
      <point x="326" y="17" type="curve" smooth="yes"/>
      <point x="407" y="17"/>
      <point x="490" y="-23"/>
    </contour>
    <contour>
      <point x="510" y="-107" type="curve" smooth="yes"/>
      <point x="510" y="-11"/>
      <point x="422" y="37"/>
      <point x="334" y="37" type="curve" smooth="yes"/>
      <point x="281" y="37"/>
      <point x="229" y="28"/>
      <point x="187" y="28" type="curve" smooth="yes"/>
      <point x="184" y="28"/>
      <point x="180" y="27"/>
      <point x="178" y="28" type="curve"/>
      <point x="177" y="28" type="line" smooth="yes"/>
      <point x="131" y="30"/>
      <point x="97" y="47"/>
      <point x="97" y="106" type="curve" smooth="yes"/>
      <point x="97" y="146"/>
      <point x="123" y="179"/>
      <point x="159" y="189" type="curve"/>
      <point x="189" y="170"/>
      <point x="226" y="159"/>
      <point x="264" y="159" type="curve" smooth="yes"/>
      <point x="365" y="159"/>
      <point x="450" y="235"/>
      <point x="450" y="331" type="curve" smooth="yes"/>
      <point x="450" y="371"/>
      <point x="437" y="404"/>
      <point x="415" y="431" type="curve"/>
      <point x="572" y="429" type="line"/>
      <point x="572" y="450" type="line"/>
      <point x="400" y="447" type="line"/>
      <point x="367" y="479"/>
      <point x="321" y="499"/>
      <point x="269" y="499" type="curve" smooth="yes"/>
      <point x="167" y="499"/>
      <point x="82" y="423"/>
      <point x="82" y="326" type="curve" smooth="yes"/>
      <point x="82" y="272"/>
      <point x="107" y="229"/>
      <point x="145" y="199" type="curve"/>
      <point x="104" y="186"/>
      <point x="76" y="148"/>
      <point x="76" y="104" type="curve" smooth="yes"/>
      <point x="76" y="51"/>
      <point x="105" y="25"/>
      <point x="141" y="16" type="curve"/>
      <point x="83" y="-10"/>
      <point x="46" y="-68"/>
      <point x="46" y="-134" type="curve" smooth="yes"/>
      <point x="46" y="-237"/>
      <point x="128" y="-285"/>
      <point x="238" y="-285" type="curve" smooth="yes"/>
      <point x="378" y="-285"/>
      <point x="510" y="-214"/>
    </contour>
    <contour>
      <point x="104" y="329" type="curve" smooth="yes"/>
      <point x="104" y="413"/>
      <point x="178" y="479"/>
      <point x="268" y="479" type="curve" smooth="yes"/>
      <point x="354" y="479"/>
      <point x="430" y="416"/>
      <point x="430" y="330" type="curve" smooth="yes"/>
      <point x="430" y="244"/>
      <point x="354" y="180"/>
      <point x="265" y="180" type="curve" smooth="yes"/>
      <point x="181" y="180"/>
      <point x="104" y="241"/>
    </contour>
  </outline>
</glyph>
<glyph name="h" format="1">
  <advance width="577"/>
  <unicode hex="0068"/>
  <outline>
    <contour>
      <point x="447" y="342" type="curve" smooth="yes"/>
      <point x="447" y="429"/>
      <point x="387" y="509"/>
      <point x="287" y="509" type="curve" smooth="yes"/>
      <point x="222" y="509"/>
      <point x="158" y="471"/>
      <point x="128" y="413" type="curve"/>
      <point x="128" y="275"/>
      <point x="129" y="137"/>
      <point x="129" y="0" type="curve"/>
      <point x="91" y="0" type="line"/>
      <point x="90" y="242"/>
      <point x="90" y="485"/>
      <point x="90" y="727" type="curve" smooth="yes"/>
      <point x="90" y="783" type="line"/>
      <point x="128" y="783" type="line"/>
      <point x="128" y="727" type="line"/>
      <point x="128" y="464" type="line"/>
      <point x="168" y="516"/>
      <point x="231" y="547"/>
      <point x="296" y="547" type="curve" smooth="yes"/>
      <point x="417" y="547"/>
      <point x="485" y="449"/>
      <point x="485" y="345" type="curve" smooth="yes"/>
      <point x="485" y="230"/>
      <point x="486" y="115"/>
      <point x="486" y="0" type="curve"/>
      <point x="448" y="0" type="line"/>
      <point x="448" y="114"/>
      <point x="447" y="228"/>
    </contour>
  </outline>
</glyph>
<glyph name="i" format="1">
  <advance width="244"/>
  <unicode hex="0069"/>
  <outline>
    <contour>
      <point x="101" y="690" type="line"/>
      <point x="101" y="799" type="line"/>
      <point x="140" y="799" type="line"/>
      <point x="140" y="690" type="line"/>
    </contour>
    <contour>
      <point x="102" y="0" type="line"/>
      <point x="101" y="533" type="line"/>
      <point x="139" y="533" type="line"/>
      <point x="140" y="0" type="line"/>
    </contour>
  </outline>
</glyph>
<glyph name="j" format="1">
  <advance width="347"/>
  <unicode hex="006A"/>
  <outline>
    <contour>
      <point x="179" y="632" type="line"/>
      <point x="201" y="632" type="line"/>
      <point x="201" y="732" type="line"/>
      <point x="179" y="732" type="line"/>
    </contour>
    <contour>
      <point x="17" y="-256" type="curve"/>
      <point x="17" y="-277" type="line"/>
      <point x="29" y="-280"/>
      <point x="41" y="-281"/>
      <point x="53" y="-281" type="curve" smooth="yes"/>
      <point x="133" y="-281"/>
      <point x="201" y="-217"/>
      <point x="201" y="-133" type="curve" smooth="yes"/>
      <point x="201" y="495" type="line"/>
      <point x="179" y="495" type="line"/>
      <point x="179" y="-133" type="line" smooth="yes"/>
      <point x="179" y="-205"/>
      <point x="119" y="-261"/>
      <point x="51" y="-261" type="curve" smooth="yes"/>
      <point x="40" y="-261"/>
      <point x="28" y="-259"/>
    </contour>
  </outline>
</glyph>
<glyph name="k" format="1">
  <advance width="604"/>
  <unicode hex="006B"/>
  <outline>
    <contour>
      <point x="121" y="0" type="line"/>
      <point x="121" y="783" type="line"/>
      <point x="159" y="783" type="line"/>
      <point x="159" y="297" type="line"/>
      <point x="475" y="533" type="line"/>
      <point x="524" y="533" type="line"/>
      <point x="193" y="284" type="line"/>
      <point x="549" y="0" type="line"/>
      <point x="500" y="0" type="line"/>
      <point x="159" y="268" type="line"/>
      <point x="159" y="0" type="line"/>
    </contour>
  </outline>
</glyph>
<glyph name="l" format="1">
  <advance width="265"/>
  <unicode hex="006C"/>
  <outline>
    <contour>
      <point x="119" y="1" type="line"/>
      <point x="141" y="1" type="line"/>
      <point x="141" y="822" type="line"/>
      <point x="119" y="822" type="line"/>
    </contour>
  </outline>
</glyph>
<glyph name="m" format="1">
  <advance width="936"/>
  <unicode hex="006D"/>
  <outline>
    <contour>
      <point x="457" y="341" type="curve" smooth="yes"/>
      <point x="457" y="228"/>
      <point x="456" y="114"/>
      <point x="456" y="1" type="curve"/>
      <point x="478" y="1" type="line"/>
      <point x="478" y="114"/>
      <point x="479" y="227"/>
      <point x="479" y="340" type="curve" smooth="yes"/>
      <point x="479" y="351" type="line"/>
      <point x="510" y="436"/>
      <point x="570" y="487"/>
      <point x="650" y="487" type="curve" smooth="yes"/>
      <point x="757" y="487"/>
      <point x="808" y="424"/>
      <point x="808" y="327" type="curve" smooth="yes"/>
      <point x="808" y="219"/>
      <point x="808" y="110"/>
      <point x="809" y="1" type="curve"/>
      <point x="831" y="1" type="line"/>
      <point x="830" y="110"/>
      <point x="830" y="219"/>
      <point x="830" y="328" type="curve" smooth="yes"/>
      <point x="830" y="435"/>
      <point x="770" y="507"/>
      <point x="650" y="507" type="curve" smooth="yes"/>
      <point x="574" y="507"/>
      <point x="511" y="463"/>
      <point x="474" y="388" type="curve"/>
      <point x="459" y="458"/>
      <point x="399" y="505"/>
      <point x="306" y="505" type="curve" smooth="yes"/>
      <point x="232" y="505"/>
      <point x="174" y="465"/>
      <point x="126" y="400" type="curve"/>
      <point x="126" y="493" type="line"/>
      <point x="104" y="493" type="line"/>
      <point x="104" y="398" type="line" smooth="yes"/>
      <point x="104" y="251"/>
      <point x="103" y="148"/>
      <point x="102" y="0" type="curve"/>
      <point x="124" y="0" type="line"/>
      <point x="125" y="136"/>
      <point x="126" y="234"/>
      <point x="126" y="363" type="curve"/>
      <point x="172" y="438"/>
      <point x="227" y="486"/>
      <point x="306" y="486" type="curve" smooth="yes"/>
      <point x="405" y="486"/>
      <point x="457" y="431"/>
    </contour>
  </outline>
</glyph>
<glyph name="n" format="1">
  <advance width="585"/>
  <unicode hex="006E"/>
  <outline>
    <contour>
      <point x="466" y="347" type="curve" smooth="yes"/>
      <point x="466" y="0" type="line"/>
      <point x="488" y="0" type="line"/>
      <point x="488" y="349" type="line" smooth="yes"/>
      <point x="488" y="442"/>
      <point x="430" y="500"/>
      <point x="329" y="500" type="curve" smooth="yes"/>
      <point x="246" y="500"/>
      <point x="170" y="457"/>
      <point x="118" y="391" type="curve"/>
      <point x="118" y="398" type="line"/>
      <point x="118" y="493" type="line"/>
      <point x="96" y="493" type="line"/>
      <point x="96" y="398" type="line" smooth="yes"/>
      <point x="96" y="266"/>
      <point x="96" y="133"/>
      <point x="94" y="0" type="curve"/>
      <point x="116" y="0" type="line"/>
      <point x="117" y="119"/>
      <point x="118" y="237"/>
      <point x="118" y="355" type="curve"/>
      <point x="167" y="428"/>
      <point x="244" y="479"/>
      <point x="331" y="479" type="curve" smooth="yes"/>
      <point x="414" y="479"/>
      <point x="466" y="429"/>
    </contour>
  </outline>
</glyph>
<glyph name="o" format="1">
  <advance width="637"/>
  <unicode hex="006F"/>
  <outline>
    <contour>
      <point x="102" y="252" type="curve" smooth="yes"/>
      <point x="102" y="386"/>
      <point x="178" y="480"/>
      <point x="313" y="480" type="curve" smooth="yes"/>
      <point x="444" y="480"/>
      <point x="523" y="386"/>
      <point x="523" y="249" type="curve" smooth="yes"/>
      <point x="523" y="109"/>
      <point x="447" y="14"/>
      <point x="314" y="14" type="curve" smooth="yes"/>
      <point x="312" y="14" type="line" smooth="yes"/>
      <point x="178" y="14"/>
      <point x="102" y="110"/>
    </contour>
    <contour>
      <point x="313" y="-6" type="curve" smooth="yes"/>
      <point x="456" y="-6"/>
      <point x="545" y="97"/>
      <point x="545" y="248" type="curve" smooth="yes"/>
      <point x="545" y="397"/>
      <point x="460" y="499"/>
      <point x="313" y="499" type="curve" smooth="yes"/>
      <point x="167" y="499"/>
      <point x="80" y="397"/>
      <point x="80" y="247" type="curve" smooth="yes"/>
      <point x="80" y="96"/>
      <point x="164" y="-6"/>
    </contour>
  </outline>
</glyph>
<glyph name="p" format="1">
  <advance width="632"/>
  <unicode hex="0070"/>
  <outline>
    <contour>
      <point x="551" y="270" type="curve" smooth="yes"/>
      <point x="551" y="395"/>
      <point x="464" y="500"/>
      <point x="331" y="500" type="curve" smooth="yes"/>
      <point x="241" y="500"/>
      <point x="161" y="446"/>
      <point x="120" y="366" type="curve"/>
      <point x="120" y="408"/>
      <point x="120" y="451"/>
      <point x="119" y="493" type="curve"/>
      <point x="97" y="493" type="line"/>
      <point x="98" y="449"/>
      <point x="98" y="404"/>
      <point x="98" y="360" type="curve" smooth="yes"/>
      <point x="98" y="307" type="line"/>
      <point x="98" y="305" type="line" smooth="yes"/>
      <point x="99" y="231"/>
      <point x="99" y="158"/>
      <point x="99" y="84" type="curve"/>
      <point x="101" y="82"/>
      <point x="99" y="73"/>
      <point x="99" y="70" type="curve" smooth="yes"/>
      <point x="99" y="-48"/>
      <point x="99" y="-167"/>
      <point x="97" y="-286" type="curve"/>
      <point x="119" y="-286" type="line"/>
      <point x="121" y="-171"/>
      <point x="121" y="-55"/>
      <point x="121" y="60" type="curve"/>
      <point x="166" y="18"/>
      <point x="226" y="-6"/>
      <point x="288" y="-6" type="curve" smooth="yes"/>
      <point x="433" y="-6"/>
      <point x="551" y="118"/>
    </contour>
    <contour>
      <point x="121" y="90" type="curve"/>
      <point x="121" y="163"/>
      <point x="121" y="235"/>
      <point x="120" y="308" type="curve"/>
      <point x="146" y="407"/>
      <point x="229" y="483"/>
      <point x="330" y="484" type="curve" smooth="yes"/>
      <point x="448" y="484"/>
      <point x="529" y="389"/>
      <point x="529" y="271" type="curve" smooth="yes"/>
      <point x="529" y="129"/>
      <point x="425" y="13"/>
      <point x="287" y="13" type="curve" smooth="yes"/>
      <point x="224" y="13"/>
      <point x="163" y="42"/>
    </contour>
  </outline>
</glyph>
<glyph name="q" format="1">
  <advance width="662"/>
  <unicode hex="0071"/>
  <outline>
    <contour>
      <point x="335" y="498" type="curve" smooth="yes"/>
      <point x="194" y="498"/>
      <point x="78" y="387"/>
      <point x="78" y="249" type="curve" smooth="yes"/>
      <point x="78" y="101"/>
      <point x="205" y="-10"/>
      <point x="362" y="-10" type="curve" smooth="yes"/>
      <point x="414" y="-10"/>
      <point x="466" y="3"/>
      <point x="513" y="28" type="curve"/>
      <point x="513" y="-286" type="line"/>
      <point x="535" y="-286" type="line"/>
      <point x="535" y="493" type="line"/>
      <point x="513" y="493" type="line"/>
      <point x="513" y="421" type="line"/>
      <point x="467" y="469"/>
      <point x="407" y="498"/>
    </contour>
    <contour>
      <point x="99" y="250" type="curve" smooth="yes"/>
      <point x="99" y="376"/>
      <point x="205" y="480"/>
      <point x="334" y="480" type="curve" smooth="yes"/>
      <point x="405" y="480"/>
      <point x="471" y="447"/>
      <point x="513" y="390" type="curve"/>
      <point x="513" y="51" type="line"/>
      <point x="468" y="23"/>
      <point x="416" y="8"/>
      <point x="364" y="8" type="curve" smooth="yes"/>
      <point x="219" y="8"/>
      <point x="99" y="111"/>
    </contour>
  </outline>
</glyph>
<glyph name="r" format="1">
  <advance width="394"/>
  <unicode hex="0072"/>
  <outline>
    <contour>
      <point x="353" y="503" type="curve" smooth="yes"/>
      <point x="246" y="503"/>
      <point x="172" y="454"/>
      <point x="126" y="386" type="curve"/>
      <point x="126" y="0" type="line"/>
      <point x="88" y="0" type="line"/>
      <point x="88" y="533" type="line"/>
      <point x="126" y="533" type="line"/>
      <point x="126" y="438" type="line"/>
      <point x="176" y="496"/>
      <point x="253" y="540"/>
      <point x="355" y="540" type="curve" smooth="yes"/>
      <point x="365" y="540"/>
      <point x="374" y="540"/>
      <point x="384" y="539" type="curve"/>
      <point x="380" y="502" type="line"/>
      <point x="371" y="503"/>
      <point x="362" y="503"/>
    </contour>
  </outline>
</glyph>
<glyph name="s" format="1">
  <advance width="462"/>
  <unicode hex="0073"/>
  <outline>
    <contour>
      <point x="380" y="436" type="curve"/>
      <point x="390" y="455" type="line"/>
      <point x="342" y="485"/>
      <point x="297" y="500"/>
      <point x="235" y="500" type="curve" smooth="yes"/>
      <point x="145" y="500"/>
      <point x="75" y="450"/>
      <point x="75" y="376" type="curve" smooth="yes"/>
      <point x="75" y="285"/>
      <point x="154" y="261"/>
      <point x="229" y="235" type="curve" smooth="yes"/>
      <point x="302" y="210"/>
      <point x="374" y="188"/>
      <point x="374" y="117" type="curve" smooth="yes"/>
      <point x="374" y="38"/>
      <point x="292" y="15"/>
      <point x="203" y="15" type="curve" smooth="yes"/>
      <point x="137" y="15"/>
      <point x="84" y="30"/>
      <point x="28" y="64" type="curve"/>
      <point x="16" y="46" type="line"/>
      <point x="75" y="10"/>
      <point x="130" y="-6"/>
      <point x="199" y="-6" type="curve" smooth="yes"/>
      <point x="304" y="-6"/>
      <point x="395" y="28"/>
      <point x="395" y="116" type="curve" smooth="yes"/>
      <point x="395" y="198"/>
      <point x="322" y="225"/>
      <point x="244" y="252" type="curve" smooth="yes"/>
      <point x="174" y="276"/>
      <point x="95" y="290"/>
      <point x="95" y="375" type="curve" smooth="yes"/>
      <point x="95" y="438"/>
      <point x="156" y="479"/>
      <point x="233" y="479" type="curve" smooth="yes"/>
      <point x="292" y="479"/>
      <point x="334" y="466"/>
    </contour>
  </outline>
</glyph>
<glyph name="t" format="1">
  <advance width="430"/>
  <unicode hex="0074"/>
  <outline>
    <contour>
      <point x="26" y="466" type="line"/>
      <point x="25" y="503" type="line"/>
      <point x="164" y="503" type="line"/>
      <point x="164" y="635" type="line"/>
      <point x="202" y="658" type="line"/>
      <point x="202" y="503" type="line"/>
      <point x="418" y="504" type="line"/>
      <point x="418" y="467" type="line"/>
      <point x="202" y="466" type="line"/>
      <point x="202" y="164" type="line" smooth="yes"/>
      <point x="202" y="89"/>
      <point x="233" y="27"/>
      <point x="300" y="27" type="curve" smooth="yes"/>
      <point x="334" y="27"/>
      <point x="367" y="35"/>
      <point x="395" y="52" type="curve"/>
      <point x="408" y="22" type="line"/>
      <point x="370" y="4"/>
      <point x="328" y="-6"/>
      <point x="286" y="-6" type="curve" smooth="yes"/>
      <point x="208" y="-6"/>
      <point x="164" y="58"/>
      <point x="164" y="141" type="curve" smooth="yes"/>
      <point x="164" y="466" type="line"/>
    </contour>
  </outline>
</glyph>
<glyph name="u" format="1">
  <advance width="589"/>
  <unicode hex="0075"/>
  <outline>
    <contour>
      <point x="134" y="184" type="line" smooth="yes"/>
      <point x="134" y="91"/>
      <point x="186" y="20"/>
      <point x="288" y="20" type="curve" smooth="yes"/>
      <point x="368" y="20"/>
      <point x="437" y="74"/>
      <point x="458" y="150" type="curve"/>
      <point x="458" y="533" type="line"/>
      <point x="496" y="533" type="line"/>
      <point x="496" y="0" type="line"/>
      <point x="458" y="0" type="line"/>
      <point x="458" y="90" type="line"/>
      <point x="420" y="28"/>
      <point x="352" y="-11"/>
      <point x="276" y="-11" type="curve" smooth="yes"/>
      <point x="160" y="-11"/>
      <point x="96" y="69"/>
      <point x="96" y="171" type="curve" smooth="yes"/>
      <point x="96" y="533" type="line"/>
      <point x="134" y="533" type="line"/>
    </contour>
  </outline>
</glyph>
<glyph name="v" format="1">
  <advance width="556"/>
  <unicode hex="0076"/>
  <outline>
    <contour>
      <point x="48" y="493" type="line"/>
      <point x="252" y="0" type="line"/>
      <point x="273" y="0" type="line"/>
      <point x="496" y="493" type="line"/>
      <point x="474" y="493" type="line"/>
      <point x="261" y="20" type="line"/>
      <point x="70" y="493" type="line"/>
    </contour>
  </outline>
</glyph>
<glyph name="w" format="1">
  <advance width="927"/>
  <unicode hex="0077"/>
  <outline>
    <contour>
      <point x="66" y="493" type="line"/>
      <point x="268" y="0" type="line"/>
      <point x="290" y="0" type="line"/>
      <point x="458" y="462" type="line"/>
      <point x="618" y="0" type="line"/>
      <point x="639" y="0" type="line"/>
      <point x="870" y="493" type="line"/>
      <point x="848" y="493" type="line"/>
      <point x="627" y="20" type="line"/>
      <point x="469" y="493" type="line"/>
      <point x="447" y="493" type="line"/>
      <point x="275" y="19" type="line"/>
      <point x="88" y="493" type="line"/>
    </contour>
  </outline>
</glyph>
<glyph name="x" format="1">
  <advance width="564"/>
  <unicode hex="0078"/>
  <outline>
    <contour>
      <point x="94" y="533" type="line"/>
      <point x="139" y="533" type="line"/>
      <point x="287" y="311" type="line"/>
      <point x="457" y="533" type="line"/>
      <point x="496" y="533" type="line"/>
      <point x="308" y="279" type="line"/>
      <point x="494" y="0" type="line"/>
      <point x="450" y="0" type="line"/>
      <point x="286" y="245" type="line"/>
      <point x="96" y="0" type="line"/>
      <point x="56" y="0" type="line"/>
      <point x="265" y="276" type="line"/>
    </contour>
  </outline>
</glyph>
<glyph name="y" format="1">
  <advance width="569"/>
  <unicode hex="0079"/>
  <outline>
    <contour>
      <point x="52" y="533" type="line"/>
      <point x="93" y="533" type="line"/>
      <point x="274" y="117" type="line"/>
      <point x="477" y="533" type="line"/>
      <point x="515" y="533" type="line"/>
      <point x="112" y="-300" type="line"/>
      <point x="71" y="-300" type="line"/>
      <point x="257" y="81" type="line"/>
    </contour>
  </outline>
</glyph>
<glyph name="z" format="1">
  <advance width="398"/>
  <unicode hex="007A"/>
  <outline>
    <contour>
      <point x="22" y="450" type="line"/>
      <point x="378" y="450" type="line"/>
      <point x="-22" y="21" type="line"/>
      <point x="-22" y="0" type="line"/>
      <point x="411" y="0" type="line"/>
      <point x="411" y="21" type="line"/>
      <point x="0" y="21" type="line"/>
      <point x="400" y="450" type="line"/>
      <point x="400" y="472" type="line"/>
      <point x="22" y="471" type="line"/>
    </contour>
  </outline>
</glyph>
<glyph name="bar" format="1">
  <advance width="62"/>
  <unicode hex="007C"/>
  <outline>
    <contour>
      <point x="12" y="847" type="line"/>
      <point x="50" y="847" type="line"/>
      <point x="50" y="535" type="line"/>
      <point x="12" y="535" type="line"/>
    </contour>
    <contour>
      <point x="12" y="1" type="line"/>
      <point x="12" y="532" type="line"/>
      <point x="50" y="532" type="line"/>
      <point x="50" y="1" type="line"/>
    </contour>
    <contour>
      <point x="12" y="-377" type="line"/>
      <point x="12" y="-1" type="line"/>
      <point x="50" y="-1" type="line"/>
      <point x="50" y="-377" type="line"/>
    </contour>
  </outline>
</glyph>
